<svg width="18" height="14" viewBox="0 0 18 14" fill="none" xmlns="http://www.w3.org/2000/svg">
<path d="M12.1289 1.125C12 0.996094 11.8477 0.931641 11.6719 0.931641C11.4961 0.931641 11.3438 0.996094 11.2148 1.125C11.0859 1.24219 11.0215 1.38867 11.0215 1.56445C11.0215 1.74023 11.0859 1.89258 11.2148 2.02148L15.8203 6.62695H0.632812C0.457031 6.62695 0.307617 6.68848 0.18457 6.81152C0.0615234 6.93457 0 7.08398 0 7.25977C0 7.43555 0.0615234 7.58496 0.18457 7.70801C0.307617 7.83105 0.457031 7.89258 0.632812 7.89258H15.8203L11.2148 12.498C11.0859 12.6152 11.0215 12.7646 11.0215 12.9463C11.0215 13.1279 11.0859 13.2773 11.2148 13.3945C11.3438 13.5234 11.4961 13.5879 11.6719 13.5879C11.8477 13.5879 12 13.5234 12.1289 13.3945L17.8066 7.7168C17.9355 7.58789 18 7.43555 18 7.25977C18 7.08398 17.9355 6.93164 17.8066 6.80273L12.1289 1.125Z" fill="#080812"/>
</svg>
